<?xml version="1.0" encoding="UTF-8"?>
<svg width="726" height="150" viewBox="0 0 726 150" fill="none" xmlns="http://www.w3.org/2000/svg">
<path d="M154 59.37L153.79 58.81L132.59 3.51001C132.161 2.42418 131.397 1.50307 130.41 0.880006C129.673 0.408375 128.836 0.115905 127.966 0.0260325C127.096 -0.0638401 126.217 0.0513888 125.399 0.362481C124.582 0.673573 123.848 1.17188 123.258 1.81745C122.668 2.46303 122.237 3.23792 122 4.08001L107.69 47.89H49.74L35.43 4.08001C35.1913 3.23917 34.7594 2.46574 34.1688 1.8214C33.5782 1.17707 32.8452 0.679644 32.0283 0.368806C31.2114 0.0579674 30.3331 -0.0576874 29.4636 0.0310679C28.5941 0.119823 27.7573 0.410529 27.02 0.880006C26.0326 1.50307 25.2691 2.42418 24.84 3.51001L3.65 58.82L3.43 59.37C0.37926 67.3431 0.00342011 76.0919 2.35914 84.2972C4.71485 92.5025 9.67443 99.7195 16.49 104.86L16.57 104.92L16.75 105.06L49 129.23L65 141.32L74.72 148.67C75.8605 149.532 77.2507 149.998 78.68 149.998C80.1093 149.998 81.4995 149.532 82.64 148.67L92.36 141.32L108.36 129.23L140.84 104.92L140.93 104.85C147.745 99.7115 152.705 92.4968 155.063 84.2935C157.42 76.0902 157.047 67.3428 154 59.37Z" fill="#E24329"/>
<path d="M154 59.37L153.79 58.81C143.461 60.9296 133.728 65.3075 125.29 71.63L78.74 106.83L108.38 129.23L140.86 104.92L140.95 104.85C147.762 99.7088 152.718 92.4929 155.072 84.2898C157.425 76.0867 157.049 67.3407 154 59.37Z" fill="#FC6D26"/>
<path d="M49 129.23L65 141.32L74.72 148.67C75.8605 149.532 77.2507 149.998 78.68 149.998C80.1093 149.998 81.4995 149.532 82.64 148.67L92.36 141.32L108.36 129.23L78.72 106.83L49 129.23Z" fill="#FCA326"/>
<path d="M32.14 71.63C23.7046 65.3106 13.9754 60.9361 3.65 58.82L3.43 59.37C0.37926 67.3431 0.00342011 76.0919 2.35914 84.2972C4.71485 92.5025 9.67443 99.7195 16.49 104.86L16.57 104.92L16.75 105.06L49 129.23L78.66 106.83L32.14 71.63Z" fill="#FC6D26"/>
<mask id="path-5-outside-1_1_3" maskUnits="userSpaceOnUse" x="191.523" y="13.1332" width="535" height="130" fill="black">
<rect fill="white" x="191.523" y="13.1332" width="535" height="130"/>
<path d="M249.87 140.546C238.834 140.546 229.076 137.91 220.596 132.637C212.17 127.309 205.537 119.943 200.699 110.539C195.915 101.08 193.523 90.2071 193.523 77.9213C193.523 65.3637 195.943 54.3826 200.781 44.978C205.619 35.5733 212.278 28.2617 220.759 23.0429C229.294 17.7698 238.97 15.1332 249.788 15.1332C256.42 15.1332 262.645 16.1389 268.461 18.1503C274.278 20.1617 279.47 23.0429 284.036 26.7939C288.657 30.4905 292.462 34.8938 295.452 40.0038C298.442 45.0595 300.426 50.686 301.405 56.8832H282.568C281.753 53.1866 280.367 49.8162 278.41 46.7719C276.507 43.7276 274.115 41.0911 271.234 38.8622C268.407 36.6334 265.2 34.921 261.612 33.725C258.024 32.5291 254.164 31.9311 250.033 31.9311C242.422 31.9311 235.763 33.8609 230.055 37.7206C224.347 41.5803 219.916 46.9622 216.763 53.8661C213.665 60.7158 212.115 68.7342 212.115 77.9213C212.115 87.0541 213.692 95.0453 216.845 101.895C219.998 108.745 224.428 114.099 230.136 117.959C235.844 121.819 242.504 123.748 250.114 123.748C256.529 123.748 262.264 122.389 267.32 119.671C272.43 116.953 276.453 113.175 279.388 108.337C282.378 103.444 283.873 97.7906 283.873 91.3759L289.092 91.7021H254.028V76.4536H302.139V90.3974C302.139 100.074 299.855 108.69 295.289 116.247C290.723 123.803 284.498 129.755 276.616 134.104C268.788 138.399 259.872 140.546 249.87 140.546Z"/>
<path d="M322.277 138.589V52.4799H339.89V138.589H322.277ZM331.002 37.6391C328.012 37.6391 325.457 36.6062 323.337 34.5405C321.216 32.4203 320.156 29.8653 320.156 26.8754C320.156 23.8855 321.216 21.3577 323.337 19.2919C325.457 17.1718 328.012 16.1118 331.002 16.1118C334.046 16.1118 336.628 17.1718 338.748 19.2919C340.868 21.3577 341.928 23.8855 341.928 26.8754C341.928 29.8653 340.868 32.4203 338.748 34.5405C336.628 36.6062 334.046 37.6391 331.002 37.6391Z"/>
<path d="M405.936 52.4799V66.9946H355.624V52.4799H405.936ZM370.791 28.9955H388.405V115.594C388.405 118.747 389.057 120.949 390.362 122.199C391.666 123.449 394.031 124.075 397.456 124.075C398.761 124.075 400.201 124.075 401.778 124.075C403.409 124.075 404.795 124.075 405.936 124.075V138.589C404.523 138.589 402.783 138.589 400.718 138.589C398.706 138.589 396.776 138.589 394.928 138.589C386.719 138.589 380.631 136.904 376.662 133.534C372.748 130.109 370.791 124.89 370.791 117.877V28.9955Z"/>
<path d="M424.199 138.589V17.0903H442.791V68.3808H502.643V17.0903H521.153V138.589H502.643V84.5263H442.791V138.589H424.199Z"/>
<path d="M576.273 140.302C570.348 140.302 565.02 139.024 560.291 136.469C555.616 133.86 551.919 130.027 549.201 124.972C546.483 119.862 545.124 113.583 545.124 106.135V52.4799H562.737V103.852C562.737 110.702 564.368 115.866 567.63 119.345C570.946 122.824 575.539 124.564 581.41 124.564C585.27 124.564 588.749 123.803 591.848 122.281C594.946 120.704 597.393 118.231 599.187 114.86C601.035 111.49 601.959 107.168 601.959 101.895V52.4799H619.572V138.589H602.285V117.143H606.281C603.508 124.809 599.594 130.598 594.539 134.512C589.537 138.372 583.449 140.302 576.273 140.302Z"/>
<path d="M686.271 140.302C682.575 140.302 679.041 139.758 675.671 138.671C672.355 137.584 669.338 135.953 666.619 133.778C663.901 131.549 661.591 128.777 659.688 125.461H659.525V138.589H642.238V17.0903H659.851V64.8745H660.014C661.863 61.7215 664.119 59.1121 666.783 57.0463C669.446 54.9262 672.436 53.3497 675.752 52.3168C679.123 51.284 682.656 50.7675 686.353 50.7675C693.8 50.7675 700.297 52.6702 705.842 56.4755C711.441 60.2265 715.79 65.4724 718.888 72.2133C722.041 78.8998 723.618 86.6736 723.618 95.5346C723.618 104.396 722.069 112.197 718.97 118.937C715.871 125.624 711.522 130.87 705.923 134.675C700.324 138.426 693.773 140.302 686.271 140.302ZM682.602 125.216C687.223 125.216 691.245 124.075 694.67 121.791C698.149 119.508 700.867 116.165 702.825 111.762C704.782 107.304 705.76 101.895 705.76 95.5346C705.76 89.0655 704.782 83.6293 702.825 79.226C700.867 74.8227 698.149 71.4794 694.67 69.1962C691.245 66.913 687.223 65.7714 682.602 65.7714C677.764 65.7714 673.551 66.9946 669.963 69.4409C666.375 71.8871 663.602 75.3391 661.645 79.7968C659.688 84.2545 658.71 89.5004 658.71 95.5346C658.71 101.46 659.688 106.652 661.645 111.109C663.602 115.567 666.375 119.046 669.963 121.547C673.551 123.993 677.764 125.216 682.602 125.216Z"/>
</mask>
<path d="M249.87 140.546C238.834 140.546 229.076 137.91 220.596 132.637C212.17 127.309 205.537 119.943 200.699 110.539C195.915 101.08 193.523 90.2071 193.523 77.9213C193.523 65.3637 195.943 54.3826 200.781 44.978C205.619 35.5733 212.278 28.2617 220.759 23.0429C229.294 17.7698 238.97 15.1332 249.788 15.1332C256.42 15.1332 262.645 16.1389 268.461 18.1503C274.278 20.1617 279.47 23.0429 284.036 26.7939C288.657 30.4905 292.462 34.8938 295.452 40.0038C298.442 45.0595 300.426 50.686 301.405 56.8832H282.568C281.753 53.1866 280.367 49.8162 278.41 46.7719C276.507 43.7276 274.115 41.0911 271.234 38.8622C268.407 36.6334 265.2 34.921 261.612 33.725C258.024 32.5291 254.164 31.9311 250.033 31.9311C242.422 31.9311 235.763 33.8609 230.055 37.7206C224.347 41.5803 219.916 46.9622 216.763 53.8661C213.665 60.7158 212.115 68.7342 212.115 77.9213C212.115 87.0541 213.692 95.0453 216.845 101.895C219.998 108.745 224.428 114.099 230.136 117.959C235.844 121.819 242.504 123.748 250.114 123.748C256.529 123.748 262.264 122.389 267.32 119.671C272.43 116.953 276.453 113.175 279.388 108.337C282.378 103.444 283.873 97.7906 283.873 91.3759L289.092 91.7021H254.028V76.4536H302.139V90.3974C302.139 100.074 299.855 108.69 295.289 116.247C290.723 123.803 284.498 129.755 276.616 134.104C268.788 138.399 259.872 140.546 249.87 140.546Z" fill="black"/>
<path d="M322.277 138.589V52.4799H339.89V138.589H322.277ZM331.002 37.6391C328.012 37.6391 325.457 36.6062 323.337 34.5405C321.216 32.4203 320.156 29.8653 320.156 26.8754C320.156 23.8855 321.216 21.3577 323.337 19.2919C325.457 17.1718 328.012 16.1118 331.002 16.1118C334.046 16.1118 336.628 17.1718 338.748 19.2919C340.868 21.3577 341.928 23.8855 341.928 26.8754C341.928 29.8653 340.868 32.4203 338.748 34.5405C336.628 36.6062 334.046 37.6391 331.002 37.6391Z" fill="black"/>
<path d="M405.936 52.4799V66.9946H355.624V52.4799H405.936ZM370.791 28.9955H388.405V115.594C388.405 118.747 389.057 120.949 390.362 122.199C391.666 123.449 394.031 124.075 397.456 124.075C398.761 124.075 400.201 124.075 401.778 124.075C403.409 124.075 404.795 124.075 405.936 124.075V138.589C404.523 138.589 402.783 138.589 400.718 138.589C398.706 138.589 396.776 138.589 394.928 138.589C386.719 138.589 380.631 136.904 376.662 133.534C372.748 130.109 370.791 124.89 370.791 117.877V28.9955Z" fill="black"/>
<path d="M424.199 138.589V17.0903H442.791V68.3808H502.643V17.0903H521.153V138.589H502.643V84.5263H442.791V138.589H424.199Z" fill="black"/>
<path d="M576.273 140.302C570.348 140.302 565.02 139.024 560.291 136.469C555.616 133.86 551.919 130.027 549.201 124.972C546.483 119.862 545.124 113.583 545.124 106.135V52.4799H562.737V103.852C562.737 110.702 564.368 115.866 567.63 119.345C570.946 122.824 575.539 124.564 581.41 124.564C585.27 124.564 588.749 123.803 591.848 122.281C594.946 120.704 597.393 118.231 599.187 114.86C601.035 111.49 601.959 107.168 601.959 101.895V52.4799H619.572V138.589H602.285V117.143H606.281C603.508 124.809 599.594 130.598 594.539 134.512C589.537 138.372 583.449 140.302 576.273 140.302Z" fill="black"/>
<path d="M686.271 140.302C682.575 140.302 679.041 139.758 675.671 138.671C672.355 137.584 669.338 135.953 666.619 133.778C663.901 131.549 661.591 128.777 659.688 125.461H659.525V138.589H642.238V17.0903H659.851V64.8745H660.014C661.863 61.7215 664.119 59.1121 666.783 57.0463C669.446 54.9262 672.436 53.3497 675.752 52.3168C679.123 51.284 682.656 50.7675 686.353 50.7675C693.8 50.7675 700.297 52.6702 705.842 56.4755C711.441 60.2265 715.79 65.4724 718.888 72.2133C722.041 78.8998 723.618 86.6736 723.618 95.5346C723.618 104.396 722.069 112.197 718.97 118.937C715.871 125.624 711.522 130.87 705.923 134.675C700.324 138.426 693.773 140.302 686.271 140.302ZM682.602 125.216C687.223 125.216 691.245 124.075 694.67 121.791C698.149 119.508 700.867 116.165 702.825 111.762C704.782 107.304 705.76 101.895 705.76 95.5346C705.76 89.0655 704.782 83.6293 702.825 79.226C700.867 74.8227 698.149 71.4794 694.67 69.1962C691.245 66.913 687.223 65.7714 682.602 65.7714C677.764 65.7714 673.551 66.9946 669.963 69.4409C666.375 71.8871 663.602 75.3391 661.645 79.7968C659.688 84.2545 658.71 89.5004 658.71 95.5346C658.71 101.46 659.688 106.652 661.645 111.109C663.602 115.567 666.375 119.046 669.963 121.547C673.551 123.993 677.764 125.216 682.602 125.216Z" fill="black"/>
<path d="M249.87 140.546C238.834 140.546 229.076 137.91 220.596 132.637C212.17 127.309 205.537 119.943 200.699 110.539C195.915 101.08 193.523 90.2071 193.523 77.9213C193.523 65.3637 195.943 54.3826 200.781 44.978C205.619 35.5733 212.278 28.2617 220.759 23.0429C229.294 17.7698 238.97 15.1332 249.788 15.1332C256.42 15.1332 262.645 16.1389 268.461 18.1503C274.278 20.1617 279.47 23.0429 284.036 26.7939C288.657 30.4905 292.462 34.8938 295.452 40.0038C298.442 45.0595 300.426 50.686 301.405 56.8832H282.568C281.753 53.1866 280.367 49.8162 278.41 46.7719C276.507 43.7276 274.115 41.0911 271.234 38.8622C268.407 36.6334 265.2 34.921 261.612 33.725C258.024 32.5291 254.164 31.9311 250.033 31.9311C242.422 31.9311 235.763 33.8609 230.055 37.7206C224.347 41.5803 219.916 46.9622 216.763 53.8661C213.665 60.7158 212.115 68.7342 212.115 77.9213C212.115 87.0541 213.692 95.0453 216.845 101.895C219.998 108.745 224.428 114.099 230.136 117.959C235.844 121.819 242.504 123.748 250.114 123.748C256.529 123.748 262.264 122.389 267.32 119.671C272.43 116.953 276.453 113.175 279.388 108.337C282.378 103.444 283.873 97.7906 283.873 91.3759L289.092 91.7021H254.028V76.4536H302.139V90.3974C302.139 100.074 299.855 108.69 295.289 116.247C290.723 123.803 284.498 129.755 276.616 134.104C268.788 138.399 259.872 140.546 249.87 140.546Z" stroke="black" stroke-width="4" mask="url(#path-5-outside-1_1_3)"/>
<path d="M322.277 138.589V52.4799H339.89V138.589H322.277ZM331.002 37.6391C328.012 37.6391 325.457 36.6062 323.337 34.5405C321.216 32.4203 320.156 29.8653 320.156 26.8754C320.156 23.8855 321.216 21.3577 323.337 19.2919C325.457 17.1718 328.012 16.1118 331.002 16.1118C334.046 16.1118 336.628 17.1718 338.748 19.2919C340.868 21.3577 341.928 23.8855 341.928 26.8754C341.928 29.8653 340.868 32.4203 338.748 34.5405C336.628 36.6062 334.046 37.6391 331.002 37.6391Z" stroke="black" stroke-width="4" mask="url(#path-5-outside-1_1_3)"/>
<path d="M405.936 52.4799V66.9946H355.624V52.4799H405.936ZM370.791 28.9955H388.405V115.594C388.405 118.747 389.057 120.949 390.362 122.199C391.666 123.449 394.031 124.075 397.456 124.075C398.761 124.075 400.201 124.075 401.778 124.075C403.409 124.075 404.795 124.075 405.936 124.075V138.589C404.523 138.589 402.783 138.589 400.718 138.589C398.706 138.589 396.776 138.589 394.928 138.589C386.719 138.589 380.631 136.904 376.662 133.534C372.748 130.109 370.791 124.89 370.791 117.877V28.9955Z" stroke="black" stroke-width="4" mask="url(#path-5-outside-1_1_3)"/>
<path d="M424.199 138.589V17.0903H442.791V68.3808H502.643V17.0903H521.153V138.589H502.643V84.5263H442.791V138.589H424.199Z" stroke="black" stroke-width="4" mask="url(#path-5-outside-1_1_3)"/>
<path d="M576.273 140.302C570.348 140.302 565.02 139.024 560.291 136.469C555.616 133.86 551.919 130.027 549.201 124.972C546.483 119.862 545.124 113.583 545.124 106.135V52.4799H562.737V103.852C562.737 110.702 564.368 115.866 567.63 119.345C570.946 122.824 575.539 124.564 581.41 124.564C585.27 124.564 588.749 123.803 591.848 122.281C594.946 120.704 597.393 118.231 599.187 114.86C601.035 111.49 601.959 107.168 601.959 101.895V52.4799H619.572V138.589H602.285V117.143H606.281C603.508 124.809 599.594 130.598 594.539 134.512C589.537 138.372 583.449 140.302 576.273 140.302Z" stroke="black" stroke-width="4" mask="url(#path-5-outside-1_1_3)"/>
<path d="M686.271 140.302C682.575 140.302 679.041 139.758 675.671 138.671C672.355 137.584 669.338 135.953 666.619 133.778C663.901 131.549 661.591 128.777 659.688 125.461H659.525V138.589H642.238V17.0903H659.851V64.8745H660.014C661.863 61.7215 664.119 59.1121 666.783 57.0463C669.446 54.9262 672.436 53.3497 675.752 52.3168C679.123 51.284 682.656 50.7675 686.353 50.7675C693.8 50.7675 700.297 52.6702 705.842 56.4755C711.441 60.2265 715.79 65.4724 718.888 72.2133C722.041 78.8998 723.618 86.6736 723.618 95.5346C723.618 104.396 722.069 112.197 718.97 118.937C715.871 125.624 711.522 130.87 705.923 134.675C700.324 138.426 693.773 140.302 686.271 140.302ZM682.602 125.216C687.223 125.216 691.245 124.075 694.67 121.791C698.149 119.508 700.867 116.165 702.825 111.762C704.782 107.304 705.76 101.895 705.76 95.5346C705.76 89.0655 704.782 83.6293 702.825 79.226C700.867 74.8227 698.149 71.4794 694.67 69.1962C691.245 66.913 687.223 65.7714 682.602 65.7714C677.764 65.7714 673.551 66.9946 669.963 69.4409C666.375 71.8871 663.602 75.3391 661.645 79.7968C659.688 84.2545 658.71 89.5004 658.71 95.5346C658.71 101.46 659.688 106.652 661.645 111.109C663.602 115.567 666.375 119.046 669.963 121.547C673.551 123.993 677.764 125.216 682.602 125.216Z" stroke="black" stroke-width="4" mask="url(#path-5-outside-1_1_3)"/>
</svg>
